<svg width="60" height="60" viewBox="0 0 60 60" fill="none" xmlns="http://www.w3.org/2000/svg">
  <rect width="60" height="60" rx="13" fill="#020812"/>
  <defs>
    <linearGradient id="qdB" x1="0%" y1="0%" x2="100%" y2="100%">
      <stop offset="0%"   stop-color="#a0ecff" />
      <stop offset="45%"  stop-color="#1aabf0" />
      <stop offset="100%" stop-color="#0044bb" />
    </linearGradient>
    <linearGradient id="qdS" x1="0%" y1="0%" x2="100%" y2="100%">
      <stop offset="0%"   stop-color="#c0c0c0" />
      <stop offset="30%"  stop-color="#eeeeee" />
      <stop offset="65%"  stop-color="#aaaaaa" />
      <stop offset="100%" stop-color="#707070" />
    </linearGradient>
    <linearGradient id="qdG1" x1="0%" y1="0%" x2="100%" y2="100%">
      <stop offset="0%"   stop-color="#f8e870" />
      <stop offset="40%"  stop-color="#d4a020" />
      <stop offset="100%" stop-color="#8a5c08" />
    </linearGradient>
    <linearGradient id="qdG2" x1="100%" y1="0%" x2="0%" y2="100%">
      <stop offset="0%"   stop-color="#f0d858" />
      <stop offset="100%" stop-color="#b88018" />
    </linearGradient>
    <clipPath id="qdC">
      <circle cx="30" cy="26" r="14" />
    </clipPath>
  </defs>
  <path d="M 13.1,32.2 A 18,18 0 0,1 39,10.4" stroke="rgba(0,0,0,0.35)" stroke-width="9.5" stroke-linecap="round" />
  <path d="M 39,10.4 A 18,18 0 1,1 18.4,39.8" stroke="rgba(0,0,0,0.35)" stroke-width="9.5" stroke-linecap="round" />
  <path d="M 39,10.4 A 18,18 0 1,1 18.4,39.8" stroke="url(#qdS)" stroke-width="7.5" stroke-linecap="round" />
  <path d="M 13.1,32.2 A 18,18 0 0,1 39,10.4" stroke="url(#qdB)" stroke-width="7.5" stroke-linecap="round" />
  <g clip-path="url(#qdC)" transform="rotate(28 30 27)">
    <rect x="18.5" y="14" width="7" height="26" rx="2.5" fill="url(#qdG1)" />
    <rect x="19.5" y="14" width="2" height="26" rx="1" fill="rgba(255,255,255,0.22)" />
    <rect x="28" y="14" width="5.5" height="26" rx="2" fill="url(#qdG2)" opacity="0.9" />
  </g>
</svg>
